//
// Level 1
//
Table stores {
    id integer [primary key, increment]
    tenant_id integer [ref: > tenants.id]
    name varchar
    can_sell boolean
    can_purchase boolean
}

Table users {
    id integer [primary key, increment]
    tenant_id integer [ref: > tenants.id]
    name varchar
    email varchar
    password varchar
}

Table categories {
    id integer [primary key, increment]
    tenant_id integer [ref: > tenants.id]
    name varchar
}

Table customers {
    id integer [primary key, increment]
    tenant_id integer [ref: > tenants.id]
    name varchar
}

Table suppliers {
    id integer [primary key, increment]
    tenant_id integer [ref: > tenants.id]
    name varchar
}

//
// Level 2
//
Table items {
    id integer [primary key, increment]
    category_id integer [ref: > categories.id]
    name varchar
}

//
// Level 3
//
Table stocks {
    id integer [primary key, increment]
    store_id integer [ref: > stores.id]
    item_id integer [ref: > items.id]
    quantity double
    unit varchar
    selling_price double
}

//
// Level 4
//
Table sales {
    id integer [primary key, increment]
    store_id integer [ref: > stores.id]
    user_id integer [ref: > users.id]
    customer_id integer [ref: > customers.id]
    sold_at datetime
}

Table purchases {
    id integer [primary key, increment]
    store_id integer [ref: > stores.id]
    user_id integer [ref: > users.id]
    supplier_id integer [ref: > suppliers.id]
    sold_at datetime
}

Table transfers {
    id integer [primary key, increment]
    store_id integer [ref: > stores.id]
    user_id integer [ref: > users.id]
    sent_at datetime [null]
    received_at datetime [null]
}

//
// Level 6
//
Table sale_details {
    id integer [primary key, increment]
    sale_id integer [ref: > sales.id]
    stock_id integer [ref: > stocks.id]
    quantity double
    price double
}

Table purchase_details {
    id integer [primary key, increment]
    purchase_id integer [ref: > purchases.id]
    stock_id integer [ref: > stocks.id]
    quantity double
    price double
}

Table transfer_details {
    id integer [primary key, increment]
    transfer_id integer [ref: > transfers.id]
    store_id integer [ref: > stores.id]
    item_id integer [ref: > items.id]
    quantity double
    unit varchar
}